# xmcd
#
# Track frame offsets: 
#        150
#        37180
#        71944
#        105923
#        173412
#        199779
#
# Disc length: 3256 seconds
#
# Revision: 0
# Processed by: cddbd v1.5.2PL0 Copyright (c) Steve Scherf et al.
# Submitted via: ExactAudioCopy v0.99pb4
#
DISCID=4c0cb606
DTITLE=Johnny Winter - Live Bootleg Series Vol 2 - Johnny Winter - Liv
DTITLE=e Bootleg Series Vol 2
DYEAR=2008
DGENRE=Blues
TTITLE0=Black Cat Bone
TTITLE1=Parchman Farm
TTITLE2=Rock Me Baby
TTITLE3=Mississippi Blues
TTITLE4=Crossroads
TTITLE5=Red House
EXTD=
EXTT0=
EXTT1=
EXTT2=
EXTT3=
EXTT4=
EXTT5=
PLAYORDER=
